<svg width="37" height="36" viewBox="0 0 37 36" fill="none" xmlns="http://www.w3.org/2000/svg">
    <path d="M12.3756 28.9871C12.3756 29.136 12.204 29.2551 11.9877 29.2551C11.7415 29.2775 11.57 29.1584 11.57 28.9871C11.57 28.8383 11.7415 28.7192 11.9579 28.7192C12.1817 28.6968 12.3756 28.8159 12.3756 28.9871ZM10.0556 28.6522C10.0034 28.801 10.1526 28.9723 10.3764 29.0169C10.5704 29.0914 10.7942 29.0169 10.8389 28.868C10.8837 28.7192 10.7419 28.5479 10.5181 28.481C10.3242 28.4288 10.1079 28.5033 10.0556 28.6522ZM13.3528 28.5256C13.1365 28.5777 12.9873 28.7192 13.0097 28.8904C13.0321 29.0393 13.226 29.136 13.4498 29.0839C13.6661 29.0318 13.8153 28.8904 13.7929 28.7415C13.7706 28.6001 13.5692 28.5033 13.3528 28.5256ZM18.2613 0C7.91472 0 0 7.83859 0 18.1635C0 26.4189 5.20686 33.4834 12.6442 35.9697C13.599 36.1409 13.9347 35.5528 13.9347 35.0689C13.9347 34.6074 13.9123 32.0615 13.9123 30.4983C13.9123 30.4983 8.69053 31.6149 7.59395 28.28C7.59395 28.28 6.74355 26.1137 5.52016 25.5554C5.52016 25.5554 3.8119 24.3867 5.63952 24.4091C5.63952 24.4091 7.49698 24.5579 8.51895 26.3296C10.1526 29.203 12.8903 28.3767 13.9571 27.8854C14.1286 26.6944 14.6135 25.8681 15.1506 25.3768C10.9806 24.9152 6.77339 24.3123 6.77339 17.1511C6.77339 15.104 7.34032 14.0767 8.53387 12.7666C8.33992 12.2827 7.70585 10.2877 8.72782 7.71204C10.2869 7.22818 13.875 9.72194 13.875 9.72194C15.3669 9.30507 16.9708 9.08919 18.5597 9.08919C20.1486 9.08919 21.7524 9.30507 23.2444 9.72194C23.2444 9.72194 26.8325 7.22073 28.3915 7.71204C29.4135 10.2951 28.7794 12.2827 28.5855 12.7666C29.779 14.0842 30.5101 15.1114 30.5101 17.1511C30.5101 24.3346 26.1163 24.9078 21.9464 25.3768C22.6327 25.9649 23.2145 27.0815 23.2145 28.8308C23.2145 31.3395 23.1921 34.4436 23.1921 35.0541C23.1921 35.5379 23.5353 36.126 24.4827 35.9548C31.9423 33.4834 37 26.4189 37 18.1635C37 7.83859 28.6079 0 18.2613 0ZM7.25081 25.6745C7.15383 25.749 7.17621 25.9202 7.30302 26.0616C7.42238 26.1807 7.59395 26.2328 7.69093 26.1361C7.7879 26.0616 7.76552 25.8904 7.63871 25.749C7.51936 25.6299 7.34778 25.5778 7.25081 25.6745ZM6.44516 25.0716C6.39294 25.1683 6.46754 25.2875 6.61673 25.3619C6.73609 25.4363 6.88528 25.414 6.9375 25.3098C6.98972 25.213 6.91512 25.0939 6.76593 25.0195C6.61673 24.9748 6.49738 24.9971 6.44516 25.0716ZM8.8621 27.7217C8.74274 27.8184 8.7875 28.0418 8.95907 28.1832C9.13065 28.3544 9.34698 28.3767 9.44395 28.2576C9.54093 28.1609 9.49617 27.9375 9.34698 27.7961C9.18286 27.6249 8.95907 27.6026 8.8621 27.7217ZM8.01169 26.6274C7.89234 26.7018 7.89234 26.8954 8.01169 27.0666C8.13105 27.2378 8.33246 27.3122 8.42944 27.2378C8.54879 27.141 8.54879 26.9475 8.42944 26.7763C8.325 26.605 8.13105 26.5306 8.01169 26.6274Z" fill="white" />
</svg>